<svg aria-hidden="true" style="position: absolute; width: 0; height: 0; overflow: hidden;" version="1.1" xmlns="http://www.w3.org/2000/svg" xmlns:xlink="http://www.w3.org/1999/xlink">
<defs>

<symbol id="icon-avatar" viewBox="0 0 32 32">
<path d="M29 16c0 7.18-5.82 13-13 13v3c8.837 0 16-7.163 16-16h-3zM16 29c-7.18 0-13-5.82-13-13h-3c0 8.837 7.163 16 16 16v-3zM3 16c0-7.18 5.82-13 13-13v-3c-8.837 0-16 7.163-16 16h3zM16 3c7.18 0 13 5.82 13 13h3c0-8.837-7.163-16-16-16v3z"></path>
<path d="M19 12c0 1.657-1.343 3-3 3v3c3.314 0 6-2.686 6-6h-3zM16 15c-1.657 0-3-1.343-3-3h-3c0 3.314 2.686 6 6 6v-3zM13 12c0-1.657 1.343-3 3-3v-3c-3.314 0-6 2.686-6 6h3zM16 9c1.657 0 3 1.343 3 3h3c0-3.314-2.686-6-6-6v3z"></path>
<path d="M5.244 25.039c-0.531 0.636-0.445 1.582 0.191 2.113s1.582 0.445 2.113-0.191l-2.304-1.921zM24.454 26.961c0.53 0.636 1.476 0.722 2.113 0.191s0.722-1.476 0.191-2.113l-2.304 1.921zM7.548 26.961c2.020-2.423 5.056-3.961 8.453-3.961v-3c-4.324 0-8.192 1.962-10.757 5.039l2.304 1.921zM16.001 23c3.397 0 6.433 1.538 8.453 3.961l2.304-1.921c-2.566-3.077-6.433-5.039-10.757-5.039v3z"></path>
</symbol>

<symbol id="icon-search" viewBox="0 0 32 32">
<path stroke-linejoin="round" stroke-linecap="round" stroke-miterlimit="4" stroke-width="2.55" d="M29.6 29.6l-7.035-7.035M2.4 14.124c0-6.475 5.249-11.724 11.724-11.724s11.724 5.249 11.724 11.724c0 6.475-5.249 11.724-11.724 11.724s-11.724-5.249-11.724-11.724z"></path>
</symbol>

<symbol id="icon-favorite" viewBox="0 0 32 32">
<path stroke-linejoin="round" stroke-linecap="round" stroke-miterlimit="4" stroke-width="2.4" d="M15.991 7.058c-2.719-3.045-7.253-3.864-10.66-1.076s-3.886 7.45-1.211 10.748l11.871 10.994 11.871-10.994c2.676-3.298 2.255-7.989-1.211-10.748s-7.941-1.969-10.66 1.076z"></path>
</symbol>

<symbol id="icon-shopping-cart" viewBox="0 0 32 32">
<path stroke-linejoin="round" stroke-linecap="round" stroke-miterlimit="4" stroke-width="2.4" d="M7.974 8.066h21.718l-3.092 13.141c-0.402 1.706-1.924 2.912-3.677 2.912h-7.793c-1.714 0-3.213-1.154-3.651-2.811l-3.505-13.242zM7.974 8.066l-1.416-5.666h-4.249"></path>
<path d="M12.225 31.2c1.043 0 1.889-0.845 1.889-1.888s-0.846-1.888-1.889-1.888c-1.043 0-1.889 0.845-1.889 1.888s0.846 1.888 1.889 1.888z"></path>
<path d="M25.446 31.2c1.043 0 1.888-0.845 1.888-1.888s-0.845-1.888-1.888-1.888c-1.043 0-1.888 0.845-1.888 1.888s0.845 1.888 1.888 1.888z"></path>
</symbol>
</defs>
</svg>
