<svg xmlns="http://www.w3.org/2000/svg" width="86" height="82" fill="none"><mask id="a" fill="#fff"><path d="M12.587 42.55a2 2 0 0 1 0-2.828l4.594-4.594c4.686-4.686 12.284-4.686 16.97 0l4.595 4.594a2 2 0 0 1 0 2.829l-4.595 4.594c-4.686 4.686-12.284 4.686-16.97 0l-4.594-4.594Z"/></mask><path stroke="#fff" stroke-width="8" d="M12.587 42.55a2 2 0 0 1 0-2.828l4.594-4.594c4.686-4.686 12.284-4.686 16.97 0l4.595 4.594a2 2 0 0 1 0 2.829l-4.595 4.594c-4.686 4.686-12.284 4.686-16.97 0l-4.594-4.594Z" mask="url(#a)"/><mask id="b" fill="#fff"><path d="M46.69 42.55a2 2 0 0 1 0-2.828l4.594-4.594c4.686-4.686 12.284-4.686 16.97 0l4.595 4.594a2 2 0 0 1 0 2.829l-4.595 4.594c-4.686 4.686-12.284 4.686-16.97 0L46.69 42.55Z"/></mask><path stroke="#fff" stroke-width="8" d="M46.69 42.55a2 2 0 0 1 0-2.828l4.594-4.594c4.686-4.686 12.284-4.686 16.97 0l4.595 4.594a2 2 0 0 1 0 2.829l-4.595 4.594c-4.686 4.686-12.284 4.686-16.97 0L46.69 42.55Z" mask="url(#b)"/><mask id="c" fill="#fff"><path d="M41.303 11.005a2 2 0 0 1 2.829 0l4.594 4.595c4.687 4.686 4.686 12.284 0 16.97l-4.594 4.594a2 2 0 0 1-2.828 0l-4.595-4.594c-4.686-4.686-4.686-12.284 0-16.97l4.594-4.595Z"/></mask><path stroke="#fff" stroke-width="8" d="M41.303 11.005a2 2 0 0 1 2.829 0l4.594 4.595c4.687 4.686 4.686 12.284 0 16.97l-4.594 4.594a2 2 0 0 1-2.828 0l-4.595-4.594c-4.686-4.686-4.686-12.284 0-16.97l4.594-4.595Z" mask="url(#c)"/><mask id="d" fill="#fff"><path d="M41.08 43.414a2 2 0 0 1 2.828 0l4.594 4.594c4.686 4.687 4.686 12.285 0 16.971l-4.594 4.594a2 2 0 0 1-2.828 0l-4.595-4.594c-4.686-4.686-4.686-12.284 0-16.97l4.595-4.595Z"/></mask><path stroke="#fff" stroke-width="8" d="M41.08 43.414a2 2 0 0 1 2.828 0l4.594 4.594c4.686 4.687 4.686 12.285 0 16.971l-4.594 4.594a2 2 0 0 1-2.828 0l-4.595-4.594c-4.686-4.686-4.686-12.284 0-16.97l4.595-4.595Z" mask="url(#d)"/><path stroke="#fff" stroke-width="4" d="M83.716 41c0 1.514-.653 2.851-1.705 4.511-.162.255-.337.523-.52.803-.915 1.396-2.026 3.093-2.6 4.986-.598 1.977-.81 4.169-.997 6.102-.051.534-.1 1.048-.156 1.532-.276 2.409-.69 4.29-1.742 5.73-1.043 1.428-2.713 2.407-4.913 3.416-.436.2-.901.404-1.383.615-1.772.777-3.775 1.655-5.43 2.821-1.62 1.142-2.816 2.74-3.774 4.021-.16.216-.316.423-.464.616-1.128 1.472-2.043 2.428-3.3 2.874-1.84.654-3.83.684-6.158.49-.67-.055-1.395-.133-2.152-.215-1.715-.186-3.6-.39-5.422-.39-1.822 0-3.707.204-5.422.39-.757.082-1.481.16-2.152.216-2.328.193-4.318.163-6.159-.491-1.679-.597-3.028-1.655-4.467-3.023a73.51 73.51 0 0 1-1.146-1.123c-1.094-1.087-2.323-2.307-3.67-3.326-1.338-1.01-2.91-1.887-4.33-2.68a89.302 89.302 0 0 1-1.392-.787c-1.83-1.066-3.284-2.09-4.258-3.424-1.111-1.521-1.702-3.5-2.176-5.891-.13-.654-.252-1.358-.38-2.087-.307-1.765-.64-3.678-1.158-5.386-.517-1.707-1.36-3.275-2.079-4.61-.192-.359-.376-.7-.541-1.022-.834-1.622-1.386-3.03-1.386-4.668 0-1.583.707-3.282 1.783-5.311.203-.383.424-.785.652-1.2.877-1.595 1.865-3.392 2.39-5.122.585-1.935.801-3.885.986-5.552.054-.486.106-.95.163-1.38.265-2.003.66-3.613 1.747-5.1.951-1.302 2.37-2.242 4.2-3.228.383-.207.793-.419 1.219-.639 1.473-.762 3.14-1.625 4.56-2.698 1.418-1.072 2.692-2.404 3.819-3.581.36-.377.706-.738 1.036-1.07 1.452-1.458 2.787-2.562 4.428-3.146 1.84-.654 3.832-.684 6.159-.49.67.055 1.395.133 2.152.216 1.715.185 3.6.39 5.422.39 1.822 0 3.707-.205 5.422-.39.757-.083 1.481-.161 2.152-.217 2.328-.193 4.318-.163 6.159.491 1.218.433 2.125 1.423 3.269 2.996l.44.615c.962 1.355 2.172 3.057 3.827 4.225 1.724 1.215 3.926 2.112 5.828 2.888.454.185.89.363 1.3.537 2.383 1.012 3.856 1.878 4.498 2.95.813 1.358 1.22 3.043 1.587 5.185.07.404.138.828.208 1.265.285 1.768.607 3.769 1.202 5.733.524 1.73 1.512 3.527 2.389 5.122.228.415.449.817.652 1.2 1.076 2.03 1.783 3.728 1.783 5.311Z"/></svg>